Coordinates
version=1
nRows=27
nColumns=12
inDegrees=yes

Units are S.I. units (second, meters, Newtons, ...)
Angles are in degrees

endheader
time	SC_y	SC_z	SC_x	AC_y	AC_z	AC_x	GH_y	GH_z	GH_yy	EL_x	PS_y
       0.0              -15.07          8.113          38.83          31.85         -3.461          2.782          92.74          22.25         -119.2          67.86          51.54
   0.02438              -15.08          8.116          38.83          31.85         -3.462          2.781          92.74          22.25         -119.1          67.86          51.54
   0.04877              -15.08          8.118          38.84          31.85         -3.462          2.781          92.74          22.25         -119.1          67.86          51.54
   0.07315              -15.09          8.121          38.85          31.86         -3.462          2.781          92.73          22.25         -119.1          67.86          51.55
   0.09754              -15.09          8.124          38.85          31.86         -3.462          2.781          92.73          22.25         -119.1          67.86          51.55
    0.1219               -15.1          8.127          38.86          31.86         -3.463          2.781          92.73          22.24         -119.1          67.85          51.55
    0.1463               -15.1          8.131          38.87          31.86         -3.463          2.781          92.72          22.24         -119.1          67.85          51.56
    0.1707              -15.11          8.134          38.87          31.86         -3.463          2.781          92.72          22.24         -119.0          67.85          51.56
    0.1951              -15.12          8.138          38.88          31.86         -3.463          2.781          92.71          22.24         -119.0          67.85          51.57
    0.2195              -15.13          8.142          38.89          31.87         -3.464           2.78          92.71          22.24         -119.0          67.85          51.57
    0.2438              -15.14          8.147           38.9          31.87         -3.464           2.78           92.7          22.24         -119.0          67.85          51.58
    0.2682              -15.15          8.151          38.91          31.87         -3.464           2.78           92.7          22.23         -118.9          67.85          51.59
    0.2926              -15.16          8.156          38.92          31.87         -3.465           2.78          92.69          22.23         -118.9          67.85          51.59
     0.317              -15.17          8.162          38.93          31.87         -3.465           2.78          92.68          22.23         -118.9          67.85           51.6
    0.3414              -15.18          8.168          38.95          31.88         -3.466          2.779          92.67          22.23         -118.8          67.85          51.61
    0.3658              -15.19          8.174          38.96          31.88         -3.466          2.779          92.67          22.22         -118.8          67.84          51.62
    0.3901              -15.21          8.182          38.98          31.88         -3.467          2.779          92.66          22.22         -118.7          67.84          51.63
    0.4145              -15.22          8.189          38.99          31.89         -3.468          2.779          92.65          22.22         -118.7          67.84          51.64
    0.4389              -15.24          8.198          39.01          31.89         -3.468          2.778          92.64          22.21         -118.6          67.84          51.65
    0.4633              -15.26          8.207          39.03           31.9         -3.469          2.778          92.62          22.21         -118.6          67.84          51.66
    0.4877              -15.28          8.217          39.05           31.9          -3.47          2.778          92.61           22.2         -118.5          67.83          51.68
    0.5121               -15.3          8.228          39.08           31.9         -3.471          2.777           92.6           22.2         -118.4          67.83          51.69
    0.5364              -15.32           8.24           39.1          31.91         -3.472          2.777          92.58          22.19         -118.4          67.83          51.71
    0.5608              -15.35          8.254          39.13          31.92         -3.473          2.776          92.56          22.19         -118.3          67.83          51.73
    0.5852              -15.38          8.269          39.17          31.92         -3.474          2.776          92.54          22.18         -118.2          67.82          51.75
    0.6096              -15.41          8.286           39.2          31.93         -3.475          2.775          92.52          22.17         -118.1          67.82          51.77
     0.634              -15.45          8.305          39.24          31.94         -3.477          2.774           92.5          22.17         -118.0          67.81          51.79
